<?xml version="1.0" encoding="UTF-8" standalone="no"?>
<svg width="69px" height="31px" viewBox="0 0 69 31" version="1.1" xmlns="http://www.w3.org/2000/svg" xmlns:xlink="http://www.w3.org/1999/xlink">
    <!-- Generator: Sketch 3.6.1 (26313) - http://www.bohemiancoding.com/sketch -->
    <title>ESFiddle</title>
    <desc>Created with Sketch.</desc>
    <defs></defs>
    <g id="Page-1" stroke="none" stroke-width="1" fill="none" fill-rule="evenodd">
        <g id="ESFiddle">
            <g id="Bands" transform="translate(0.000000, 9.000000)" fill="#23617B">
                <path d="M1.09124154,0 C0.495499384,0 0.00809160305,0.625241904 0.00809160305,1.38945408 L0.00809160305,7.5567673 C0.00809160305,8.32097947 0.495499384,8.94622137 1.09124154,8.94622137 L5,8.94622137 L5,0 L1.09124154,0" id="Fill-4"></path>
                <path d="M65.0831499,0 C64.4874078,0 64,0.625241904 64,1.38945408 L64,7.5567673 C64,8.32097947 64.4874078,8.94622137 65.0831499,8.94622137 L68.9919084,8.94622137 L68.9919084,0 L65.0831499,0" id="Fill-4" transform="translate(66.495954, 4.473111) scale(-1, 1) translate(-66.495954, -4.473111) "></path>
            </g>
            <g id="Armor" transform="translate(4.315522, 0.926209)" fill="#65ABBC">
                <path d="M51.8921247,29.2170254 C56.5487074,28.8717837 60.3580992,24.7669135 60.3580992,20.0983282 L60.3580992,8.4907888 C60.3580992,3.82072029 56.5381886,0.000674615854 51.8696036,0.000674300254 L8.54769975,0.000674300254 C3.8791145,0.000674300254 0.0592035623,3.82058524 0.0592035623,8.4907888 L0.0592035623,20.0983282 C0.0592035623,24.7669135 3.86859542,28.8717837 8.52517812,29.2185089 L19.8236183,30.0612494 C21.7231221,30.2028524 23.9797354,29.1265344 24.8375802,27.6688321 C24.8375802,27.6688321 24.8375802,27.6688321 26.7430178,24.4292239 C28.401257,21.6103791 32.0160458,21.6103791 33.674285,24.4292239 L35.5797226,27.6688321 C36.4375674,29.1265344 38.6941807,30.2028524 40.5936845,30.0612494 C40.5936845,30.0612494 51.8921247,29.2185089 51.8921247,29.2170254 L51.8921247,29.2170254 Z" id="Combined-Shape"></path>
            </g>
            <g id="Lens" transform="translate(8.000000, 5.000000)">
                <path d="M52.1512239,4.41713232 L52.1512239,16.0246718 C52.1512239,18.3100102 50.1508448,20.4657481 47.8715751,20.634458 C47.8715751,20.634458 36.573,21.4786819 36.5669313,21.4786819 C36.3182494,21.4786819 35.9022061,21.3113206 35.7136718,21.1682341 L33.8867226,18.0628117 C33.2565216,16.990944 32.4470916,16.0910229 31.5138601,15.3915038 L36.2324784,7.32795165 L46.4544656,0.449414758 L48.1851247,0.449414758 C50.3724198,0.449414758 52.1512239,2.22983715 52.1512239,4.41713232" id="Fill-12" fill="#A8D5BE"></path>
                <path d="M32.9435534,7.33822682 L26.524173,13.7197786 C23.5122087,13.7197786 20.7610636,15.3433588 19.1616234,18.0628117 L17.3346743,21.1682341 C17.1461399,21.3114555 16.7300967,21.4786819 16.4814148,21.4786819 L5.17677099,20.6345929 C3.99499237,20.5470687 2.88846565,19.9260382 2.09859033,19.029084 L12.7513842,8.38750508 L20.6766412,0.449414758 L23.5559033,0.449414758 C24.0323639,1.62229262 25.1809669,2.45141221 26.524173,2.45141221 C27.8673791,2.45141221 29.0159822,1.62229262 29.4924427,0.449414758 L39.794402,0.449414758 L32.9435534,7.33822682 Z" id="Fill-13" fill="#CDE7D7"></path>
                <path d="M20.6766412,0.449414758 L2.09859033,19.029084 C1.36144529,18.1953791 0.897122137,17.1251298 0.897122137,16.0246718 L0.897122137,4.41713232 C0.897122137,2.22983715 2.67592621,0.449414758 4.86322137,0.449414758 L20.6766412,0.449414758" id="Fill-14" fill="#A8D5BE"></path>
                <path d="M46.4544656,0.449414758 L31.5138601,15.3915038 C30.0788142,14.3166692 28.3481552,13.7197786 26.524173,13.7197786 L39.794402,0.449414758 L46.4544656,0.449414758" id="Fill-15" fill="#FFFFFF"></path>
            </g>
        </g>
    </g>
</svg>